<?xml version="1.0" encoding="UTF-8"?>
<svg xmlns="http://www.w3.org/2000/svg" width="1600" height="900" viewBox="0 0 1600 900" role="img" aria-labelledby="title desc">
  <title id="title">Data Authority Matrix</title>
  <desc id="desc">Each fact has one authoritative store, controlled derivatives, and an explicit recovery rule.</desc>
  <defs>
    <pattern id="grid" width="40" height="40" patternUnits="userSpaceOnUse">
      <path d="M 40 0 L 0 0 0 40" fill="none" stroke="#10232D" stroke-width="1"/>
    </pattern>
    <linearGradient id="bg" x1="0" y1="0" x2="1" y2="1">
      <stop offset="0" stop-color="#061018"/>
      <stop offset="1" stop-color="#081A24"/>
    </linearGradient>
    <marker id="arrow" markerWidth="10" markerHeight="10" refX="8" refY="3" orient="auto" markerUnits="strokeWidth">
      <path d="M0,0 L0,6 L9,3 z" fill="#2F93A8"/>
    </marker>
    <filter id="soft" x="-20%" y="-20%" width="140%" height="140%">
      <feGaussianBlur stdDeviation="18"/>
    </filter>
  </defs>
  <rect width="1600" height="900" fill="url(#bg)"/>
  <rect width="1600" height="900" fill="url(#grid)" opacity=".42"/>
  <circle cx="1440" cy="80" r="180" fill="#2F93A8" opacity=".07" filter="url(#soft)"/>
  <g>
    <text x="90" y="82" fill="#69D2E7" font-family="ui-monospace, SFMono-Regular, Menlo, monospace" font-size="15" font-weight="700" letter-spacing="3">SYSTEM VIEW / DATA-AUTHORITY</text>
    <text x="90" y="150" fill="#EAF1F3" font-family="Inter, Arial, sans-serif" font-size="45" font-weight="650">Data Authority Matrix</text>
    <text x="90" y="192" fill="#91A6AF" font-family="Inter, Arial, sans-serif" font-size="20">Each fact has one authoritative store, controlled derivatives, and an explicit recovery rule.</text>
    <line x1="90" y1="222" x2="1510" y2="222" stroke="#34505C" stroke-width="1"/>
  </g>
  <rect x="90" y="270" width="420" height="58" rx="10" fill="#102733" stroke="#2F93A8"/>
      <text x="110" y="307" fill="#69D2E7" font-family="ui-monospace, SFMono-Regular, Menlo, monospace" font-size="16" font-weight="700" letter-spacing="1.5">FACT</text><rect x="570" y="270" width="420" height="58" rx="10" fill="#102733" stroke="#2F93A8"/>
      <text x="590" y="307" fill="#69D2E7" font-family="ui-monospace, SFMono-Regular, Menlo, monospace" font-size="16" font-weight="700" letter-spacing="1.5">AUTHORITY</text><rect x="1050" y="270" width="460" height="58" rx="10" fill="#102733" stroke="#2F93A8"/>
      <text x="1070" y="307" fill="#69D2E7" font-family="ui-monospace, SFMono-Regular, Menlo, monospace" font-size="16" font-weight="700" letter-spacing="1.5">CONTROLLED DERIVATIVE</text><rect x="90" y="342" width="420" height="76" rx="10" fill="#0D202A" stroke="#34505C"/>
      <text x="110" y="376" text-anchor="start" fill="#EAF1F3" font-family="Inter, Arial, sans-serif" font-size="18" font-weight="600">Product terms</text><rect x="570" y="342" width="420" height="76" rx="10" fill="#0D202A" stroke="#34505C"/>
      <text x="590" y="376" text-anchor="start" fill="#EAF1F3" font-family="Inter, Arial, sans-serif" font-size="18" font-weight="600">Product registry</text><rect x="1050" y="342" width="460" height="76" rx="10" fill="#0D202A" stroke="#34505C"/>
      <text x="1070" y="376" text-anchor="start" fill="#EAF1F3" font-family="Inter, Arial, sans-serif" font-size="18" font-weight="600">Versioned read models</text><rect x="90" y="434" width="420" height="76" rx="10" fill="#0B1B25" stroke="#34505C"/>
      <text x="110" y="468" text-anchor="start" fill="#EAF1F3" font-family="Inter, Arial, sans-serif" font-size="18" font-weight="600">Balances</text><rect x="570" y="434" width="420" height="76" rx="10" fill="#0B1B25" stroke="#34505C"/>
      <text x="590" y="468" text-anchor="start" fill="#EAF1F3" font-family="Inter, Arial, sans-serif" font-size="18" font-weight="600">Double-entry ledger</text><rect x="1050" y="434" width="460" height="76" rx="10" fill="#0B1B25" stroke="#34505C"/>
      <text x="1070" y="468" text-anchor="start" fill="#EAF1F3" font-family="Inter, Arial, sans-serif" font-size="18" font-weight="600">UI projections</text><rect x="90" y="526" width="420" height="76" rx="10" fill="#0D202A" stroke="#34505C"/>
      <text x="110" y="560" text-anchor="start" fill="#EAF1F3" font-family="Inter, Arial, sans-serif" font-size="18" font-weight="600">Chain settlement</text><rect x="570" y="526" width="420" height="76" rx="10" fill="#0D202A" stroke="#34505C"/>
      <text x="590" y="560" text-anchor="start" fill="#EAF1F3" font-family="Inter, Arial, sans-serif" font-size="18" font-weight="600">Canonical RPC evidence</text><rect x="1050" y="526" width="460" height="76" rx="10" fill="#0D202A" stroke="#34505C"/>
      <text x="1070" y="560" text-anchor="start" fill="#EAF1F3" font-family="Inter, Arial, sans-serif" font-size="18" font-weight="600">Indexed views</text><rect x="90" y="618" width="420" height="76" rx="10" fill="#0B1B25" stroke="#34505C"/>
      <text x="110" y="652" text-anchor="start" fill="#EAF1F3" font-family="Inter, Arial, sans-serif" font-size="18" font-weight="600">Custody control</text><rect x="570" y="618" width="420" height="76" rx="10" fill="#0B1B25" stroke="#34505C"/>
      <text x="590" y="652" text-anchor="start" fill="#EAF1F3" font-family="Inter, Arial, sans-serif" font-size="18" font-weight="600">Custody policy record</text><rect x="1050" y="618" width="460" height="76" rx="10" fill="#0B1B25" stroke="#34505C"/>
      <text x="1070" y="652" text-anchor="start" fill="#EAF1F3" font-family="Inter, Arial, sans-serif" font-size="18" font-weight="600">Operational dashboards</text><rect x="90" y="710" width="420" height="76" rx="10" fill="#0D202A" stroke="#34505C"/>
      <text x="110" y="744" text-anchor="start" fill="#EAF1F3" font-family="Inter, Arial, sans-serif" font-size="18" font-weight="600">Audit evidence</text><rect x="570" y="710" width="420" height="76" rx="10" fill="#0D202A" stroke="#34505C"/>
      <text x="590" y="744" text-anchor="start" fill="#EAF1F3" font-family="Inter, Arial, sans-serif" font-size="18" font-weight="600">Evidence archive</text><rect x="1050" y="710" width="460" height="76" rx="10" fill="#0D202A" stroke="#34505C"/>
      <text x="1070" y="744" text-anchor="start" fill="#EAF1F3" font-family="Inter, Arial, sans-serif" font-size="18" font-weight="600">Search index</text>
  <line x1="90" y1="842" x2="1510" y2="842" stroke="#34505C" stroke-width="1"/>
  <text x="90" y="872" fill="#91A6AF" font-family="ui-monospace, SFMono-Regular, Menlo, monospace" font-size="13" letter-spacing="1.8">DOCUMENTATION VISUAL / HUMAN-READABLE / SOURCE-BOUND</text>
</svg>